<?xml version="1.0" standalone="no"?>
<!DOCTYPE svg PUBLIC "-//W3C//DTD SVG 20010904//EN"
 "http://www.w3.org/TR/2001/REC-SVG-20010904/DTD/svg10.dtd">
<svg version="1.0" xmlns="http://www.w3.org/2000/svg"
 width="920.000000pt" height="959.000000pt" viewBox="0 0 920.000000 959.000000"
 preserveAspectRatio="xMidYMid meet">

<g transform="translate(0.000000,959.000000) scale(0.100000,-0.100000)"
fill="#000000" stroke="none">
<path d="M1264 9165 c-180 -42 -345 -135 -468 -265 -76 -81 -111 -131 -160
-226 l-36 -71 0 -3458 0 -3458 36 -71 c78 -154 213 -301 353 -383 l71 -43
3524 0 3524 0 88 59 c184 121 312 284 379 481 l25 74 0 3342 0 3343 -26 73
c-65 183 -199 358 -359 468 -66 45 -196 104 -290 132 l-80 23 -3240 2 -3240 2
-101 -24z m4863 -1201 c261 -38 524 -165 716 -344 l74 -70 119 30 c219 54 443
140 643 246 46 24 86 43 88 40 6 -6 -35 -105 -85 -200 -89 -174 -221 -329
-382 -449 -52 -39 -97 -73 -99 -74 -24 -16 139 8 284 42 101 23 256 72 359
112 48 19 90 32 93 29 3 -3 -14 -31 -37 -63 -129 -182 -341 -402 -524 -548
l-99 -78 7 -81 c12 -165 -20 -553 -65 -786 -153 -790 -531 -1511 -1079 -2061
-226 -226 -350 -329 -589 -487 -402 -267 -853 -448 -1356 -546 -439 -85 -1022
-87 -1460 -5 -371 69 -689 176 -1020 341 -139 69 -345 184 -345 193 0 1 98 0
218 -3 386 -9 677 37 1022 160 229 82 560 264 715 392 l30 25 -42 1 c-22 0
-92 9 -155 19 -468 81 -841 378 -1033 825 -30 71 -33 101 -7 91 9 -4 89 -10
177 -13 213 -6 463 31 359 53 -64 14 -214 69 -289 107 -215 108 -397 270 -529
473 -90 138 -142 257 -182 416 -22 92 -50 316 -40 327 3 3 38 -10 78 -28 105
-47 200 -78 303 -100 96 -19 225 -35 225 -28 0 3 -34 31 -75 63 -204 156 -378
407 -458 662 -81 255 -81 550 0 808 30 95 108 265 121 265 6 0 41 -37 80 -82
89 -105 329 -341 447 -438 227 -189 473 -349 745 -484 316 -157 604 -258 935
-326 140 -29 445 -70 522 -70 l66 0 -7 33 c-31 149 -32 394 -1 537 24 112 70
246 116 336 273 534 832 825 1416 738z"/>
</g>
</svg>
